<svg width="83" height="86" viewBox="0 0 83 86" fill="none" xmlns="http://www.w3.org/2000/svg">
<path fill-rule="evenodd" clip-rule="evenodd" d="M63.4787 7.01735C63.2605 7.23733 63.0547 7.47658 62.8635 7.73511C61.8037 9.16806 58.0381 11.2715 55.588 11.6122C52.2838 12.0717 49.8827 14.9862 50.0641 18.3173C50.6873 29.7586 54.9719 39.7302 61.8932 43.4103L61.8523 43.4943C61.3197 44.5812 60.764 45.4946 60.0598 46.4717C59.8014 46.8303 59.048 47.8011 58.339 48.7147L58.3386 48.7153C57.7925 49.4189 57.2728 50.0886 57.0258 50.4186C56.2713 51.4265 56.073 54.2545 56.1961 61.5741C56.2338 63.8114 56.2465 64.9263 56.2418 66.2523C56.2051 76.4758 54.7837 82.4679 49.9749 85.5319C48.8404 86.2548 47.5373 86.0941 46.5627 85.3668C46.0674 84.9973 45.6926 84.5266 45.3322 83.9249C44.8619 83.1396 44.3882 82.0642 43.81 80.541C43.5859 79.9506 42.9425 78.1305 42.2574 76.1924C41.5135 74.0881 40.7205 71.8447 40.3618 70.8858C37.5231 63.297 34.9027 59.1123 33.2951 59.1123C31.6832 59.1123 29.056 63.3002 26.2135 70.8858C25.8402 71.8821 25.0165 74.2108 24.2592 76.3517L24.2588 76.3529C23.5938 78.2328 22.9802 79.9677 22.7677 80.5282C22.1911 82.0496 21.7201 83.123 21.2541 83.9073C20.8981 84.5065 20.529 84.9754 20.0425 85.3458C19.0755 86.082 17.7738 86.2602 16.6287 85.5405C11.7816 82.4943 10.3556 76.4917 10.3297 66.2385C10.3264 64.9142 10.3403 63.7978 10.3803 61.5684C10.5114 54.2488 10.3163 51.4232 9.56434 50.4186C9.38694 50.1816 8.9856 49.6497 8.61152 49.1539C8.27877 48.7128 7.96759 48.3004 7.85481 48.1496C7.25005 47.341 6.80827 46.7273 6.40008 46.1197C5.50413 44.7859 4.80374 43.5172 4.13228 41.9753C3.30891 40.0847 2.50514 37.7213 1.50353 34.2647C-0.812548 26.2716 -0.179273 14.4155 1.55846 9.66701C3.42164 4.57578 12.0049 -0.342067 16.8977 0.0526931C20.3317 0.329753 22.5379 1.54319 26.3794 4.53955C26.652 4.75233 26.79 4.85994 26.9196 4.96077C29.8218 7.21772 31.3155 7.98227 33.2951 7.98227C35.2923 7.98227 36.7975 7.20671 39.7727 4.89421L40.0061 4.71251L40.2453 4.52617C44.1691 1.46928 46.3863 0.254355 49.8581 0.01584C53.8321 -0.257172 60.2886 3.03617 63.4787 7.01735ZM67.9436 41.0705C59.5174 41.0705 54.5207 29.3431 53.9088 18.1079C53.8362 16.7755 54.7967 15.6097 56.1184 15.4259C59.6738 14.9315 64.321 12.2396 65.9592 10.0247C66.9853 8.63732 69.0606 8.63732 70.0867 10.0247C71.7249 12.2396 76.3721 14.9315 79.9276 15.4259C81.2493 15.6097 82.2097 16.7755 82.1371 18.1079C81.5327 29.2051 76.3689 41.0705 67.9436 41.0705ZM76.8186 19.9881C75.8476 27.9087 72.0136 35.9367 67.9436 35.9367C63.8969 35.9367 60.1755 27.9886 59.2233 19.9892C62.4 19.0686 65.6867 17.2638 68.023 15.2488C70.3583 17.2629 73.6432 19.0671 76.8186 19.9881Z" fill="white"/>
</svg>
