<svg xmlns="http://www.w3.org/2000/svg" width="22" height="12" viewBox="0 0 22 12">
    <path fill="#09d9e7" fill-rule="evenodd" d="M21.398.867c.172.467-.386 1.54-1.673 3.22-.179.233-.42.543-.725.93-.298.372-.502.635-.614.788a5.247 5.247 0 0 0-.34.543c-.115.208-.16.36-.134.46.026.098.074.224.145.377.07.154.192.31.363.471.17.16.383.354.636.58.03.015.048.03.055.044 1.05.957 1.76 1.763 2.131 2.42.023.037.047.083.073.137.026.055.052.152.078.29a.83.83 0 0 1-.006.373c-.03.11-.122.21-.279.301-.156.091-.375.137-.658.137l-2.856.044c-.178.036-.387.018-.625-.055a2.743 2.743 0 0 1-.58-.24l-.223-.132a5.196 5.196 0 0 1-.781-.701 19.643 19.643 0 0 1-.764-.849 3.668 3.668 0 0 0-.68-.635c-.242-.172-.453-.228-.631-.17a.737.737 0 0 0-.09.039 1.394 1.394 0 0 0-.43.482c-.07.127-.133.317-.189.569-.055.252-.08.535-.072.849 0 .109-.013.21-.04.3a.732.732 0 0 1-.083.203l-.044.055c-.134.139-.331.219-.592.24h-1.283a5.16 5.16 0 0 1-1.629-.18 6.294 6.294 0 0 1-1.467-.58c-.42-.237-.803-.478-1.149-.723a6.605 6.605 0 0 1-.786-.63l-.28-.262a7.262 7.262 0 0 1-.306-.329c-.13-.146-.396-.478-.798-.996A27.378 27.378 0 0 1 2.89 6.583a33.39 33.39 0 0 1-1.367-2.31 35.86 35.86 0 0 1-1.456-2.98A.86.86 0 0 1 0 .999C0 .918.011.86.033.823L.078.757C.19.618.402.55.714.55L3.771.527c.09.015.175.039.257.071a.762.762 0 0 1 .178.093l.056.033c.119.08.208.197.268.35.148.366.32.744.513 1.134.193.39.346.688.457.893l.179.317c.215.438.424.818.625 1.14.2.32.38.57.54.75.16.178.315.319.464.42.148.103.275.154.379.154a.846.846 0 0 0 .301-.055.19.19 0 0 0 .056-.054c.022-.03.067-.11.134-.241.067-.132.117-.303.15-.515.034-.212.07-.507.106-.887.038-.38.038-.836 0-1.369a5 5 0 0 0-.1-.8c-.052-.24-.104-.408-.156-.503l-.067-.131c-.186-.249-.502-.406-.948-.471-.097-.015-.079-.102.055-.263.12-.139.26-.248.424-.329.395-.19 1.283-.277 2.667-.262.61.007 1.112.054 1.506.142.149.036.273.086.374.148.1.062.176.15.228.263.052.113.091.23.117.35.027.12.04.287.04.498 0 .212-.004.413-.012.603l-.028.772c-.01.324-.016.626-.016.903 0 .08-.004.234-.011.46-.008.226-.01.402-.006.526s.017.272.04.443c.021.172.064.314.127.427a.734.734 0 0 0 .251.268c.06.015.123.03.19.044.067.015.164-.025.29-.12.127-.095.268-.221.424-.378.156-.157.35-.401.58-.734.23-.332.484-.724.759-1.177.446-.76.844-1.58 1.194-2.464a.747.747 0 0 1 .111-.191.495.495 0 0 1 .123-.115l.045-.033.055-.028a.914.914 0 0 1 .368-.038l3.214-.022c.29-.036.528-.027.714.027.186.055.3.115.346.181l.066.11z"/>
</svg>
