<svg width="12" height="12" viewBox="0 0 12 12" fill="none" xmlns="http://www.w3.org/2000/svg">
<path fill-rule="evenodd" clip-rule="evenodd" d="M7.02299 0.114068L10.5602 0C10.9481 0 11.3132 0.136882 11.5871 0.410646C11.8609 0.684411 12.0207 1.04943 11.9978 1.43726L11.8609 4.95057C11.8153 5.52091 11.5871 6.02281 11.1991 6.41065L6.11017 11.4981C5.79069 11.8403 5.3571 12 4.92351 12C4.48992 12 4.05633 11.8175 3.73685 11.4981L0.496344 8.25856C-0.165448 7.59696 -0.165448 6.52471 0.496344 5.86312L5.5853 0.775665C5.97325 0.387833 6.4753 0.159696 7.02299 0.114068ZM7.04581 3.44487C7.04581 4.28897 7.73042 4.97338 8.57478 4.97338C9.41913 4.97338 10.1037 4.28897 10.1037 3.44487C10.1037 2.60076 9.41913 1.91635 8.57478 1.91635C7.73042 1.91635 7.04581 2.60076 7.04581 3.44487Z" fill="#FF4C72"/>
</svg>
