<svg xmlns="http://www.w3.org/2000/svg" width="22" height="22" viewBox="0 0 22 22">
    <path fill="#29B3BC" fill-rule="evenodd" d="M9.7 0h2.222c1.946.004 2.358.02 3.346.065 1.15.053 1.937.235 2.624.503.711.276 1.314.645 1.915 1.246a5.3 5.3 0 0 1 1.247 1.915c.267.688.45 1.474.503 2.625.047 1.03.061 1.433.064 3.597v1.72c-.003 2.164-.017 2.568-.064 3.597-.053 1.15-.236 1.937-.503 2.624a5.3 5.3 0 0 1-1.247 1.915 5.3 5.3 0 0 1-1.915 1.247c-.687.267-1.473.45-2.624.503-1.03.047-1.433.061-3.598.064H9.951c-2.164-.003-2.568-.017-3.597-.064-1.151-.053-1.937-.236-2.625-.503a5.3 5.3 0 0 1-1.915-1.247 5.299 5.299 0 0 1-1.246-1.915C.3 17.205.118 16.42.065 15.268c-.045-.988-.06-1.4-.064-3.346V9.7C.004 7.754.02 7.342.065 6.354.118 5.203.3 4.417.568 3.729a5.299 5.299 0 0 1 1.246-1.915A5.299 5.299 0 0 1 3.73.568C4.417.3 5.203.118 6.354.065 7.342.02 7.754.005 9.7.001h2.222zm1.11 1.948h-.299c-2.612 0-2.97.013-4.069.063-1.054.048-1.626.224-2.007.372a3.35 3.35 0 0 0-1.243.809 3.35 3.35 0 0 0-.809 1.243c-.148.38-.324.953-.372 2.007-.05 1.1-.062 1.457-.063 4.07v.599c0 2.612.013 2.97.063 4.068.048 1.054.224 1.627.372 2.008.196.504.43.864.809 1.243a3.35 3.35 0 0 0 1.243.808c.38.149.953.325 2.007.373 1.018.046 1.4.06 3.524.062h1.69c2.124-.002 2.506-.016 3.523-.062 1.054-.048 1.627-.224 2.008-.373a3.35 3.35 0 0 0 1.243-.808 3.35 3.35 0 0 0 .808-1.243c.149-.381.325-.954.373-2.008.046-1.018.06-1.4.062-3.524V9.967c-.002-2.125-.016-2.507-.062-3.525-.048-1.054-.224-1.626-.373-2.007a3.35 3.35 0 0 0-.808-1.243 3.35 3.35 0 0 0-1.243-.809c-.381-.148-.954-.324-2.008-.372-1.058-.048-1.429-.061-3.787-.063h-.281zm0 3.311a5.551 5.551 0 1 1 0 11.103 5.551 5.551 0 0 1 0-11.103zm0 1.948a3.604 3.604 0 1 0 0 7.207 3.604 3.604 0 0 0 0-7.207zm5.772-3.464a1.297 1.297 0 1 1 0 2.594 1.297 1.297 0 0 1 0-2.594z"/>
</svg>
