<?xml version="1.0" encoding="UTF-8"?>
<svg width="188px" height="34px" viewBox="0 0 188 34" version="1.1" xmlns="http://www.w3.org/2000/svg" xmlns:xlink="http://www.w3.org/1999/xlink">
    <!-- Generator: Sketch 55.2 (78181) - https://sketchapp.com -->
    <title>Group 20</title>
    <desc>Created with Sketch.</desc>
    <defs>
        <polygon id="path-1" points="0 0.127699531 18.1301204 0.127699531 18.1301204 33.3614225 0 33.3614225"></polygon>
        <polygon id="path-3" points="0.0946697201 0.127699531 18.2247902 0.127699531 18.2247902 33.3614225 0.0946697201 33.3614225"></polygon>
        <polygon id="path-5" points="0.0626028838 0.111721127 15.8964444 0.111721127 15.8964444 31.5258056 0.0626028838 31.5258056"></polygon>
    </defs>
    <g id="UI-Kit" stroke="none" stroke-width="1" fill="none" fill-rule="evenodd">
        <g transform="translate(-40.000000, -50.000000)" id="Group-22">
            <g>
                <g id="Group-20" transform="translate(40.000000, 50.000000)">
                    <g id="Group-3" transform="translate(0.000000, 0.031925)">
                        <mask id="mask-2" fill="white">
                            <use xlink:href="#path-1"></use>
                        </mask>
                        <g id="Clip-2"></g>
                        <path d="M16.0254453,33.3614225 L2.24834606,33.3614225 C1.64208991,33.3614225 1.11588126,33.130446 0.669560645,32.6670563 C0.222602205,32.204784 0,31.669723 0,31.0629906 L0,2.37832394 C0,1.74014554 0.215267176,1.20508451 0.64564207,0.774258216 C1.07633588,0.343112676 1.59425276,0.127619718 2.20034945,0.127619718 C2.83801866,0.127619718 3.37235963,0.343112676 3.80305344,0.774258216 C4.23342833,1.20508451 4.4486955,1.74014554 4.4486955,2.37832394 L4.4486955,29.1952254 L16.0254453,29.1952254 C16.5994911,29.1952254 17.0933299,29.3950751 17.5082375,29.7938169 C17.9223478,30.1935164 18.1301204,30.679892 18.1301204,31.2545399 C18.1301204,31.8612723 17.9223478,32.3640892 17.5082375,32.762831 C17.0933299,33.1625305 16.5994911,33.3614225 16.0254453,33.3614225" id="Fill-1" fill="#FF4C72" mask="url(#mask-2)"></path>
                    </g>
                    <path d="M38.1731688,22.1398263 C38.1731688,19.8736385 37.4235606,18.0860047 35.9248227,16.776446 C34.4256064,15.4678451 32.7033096,14.8132254 30.7584105,14.8132254 C28.6851484,14.8132254 26.9553571,15.4917887 25.5682392,16.8484366 C24.1808024,18.205723 23.4871637,19.9692535 23.4871637,22.1398263 C23.4871637,24.3113568 24.1882969,26.0989906 25.5921578,27.5033662 C26.9949025,28.9085399 28.7171993,29.6104085 30.7584105,29.6104085 C32.8311942,29.6104085 34.5853825,28.9399859 36.020497,27.5991408 C37.4556115,26.2582958 38.1731688,24.4384178 38.1731688,22.1398263 M38.2211654,31.4301268 L38.2218032,29.9454601 C37.4878219,31.1906901 36.4031942,32.1565775 34.9680797,32.8428028 C33.5329652,33.5290282 32.0023359,33.8722207 30.3758728,33.8722207 C27.2186209,33.8722207 24.539581,32.7872535 22.3392316,30.6160423 C20.1385632,28.4453099 19.0383087,25.6356009 19.0383087,22.1878732 C19.0383087,18.7085399 20.1385632,15.898831 22.3392316,13.7595446 C24.539581,11.621216 27.2186209,10.5510939 30.3758728,10.5510939 C32.0023359,10.5510939 33.5404597,10.8863052 34.9921578,11.5568873 C36.4427396,12.2271502 37.5190755,13.1692535 38.2211654,14.3820798 L38.2211654,12.993507 C38.2211654,12.3874131 38.4303732,11.8679953 38.8495861,11.437169 C39.2681612,11.0060235 39.7840051,10.7905305 40.396799,10.7905305 C41.0097523,10.7905305 41.533888,11.0060235 41.9688872,11.437169 C42.4037269,11.8679953 42.6220237,12.3874131 42.6220237,12.993507 L42.6220237,31.4301268 C42.6220237,32.0368592 42.4037269,32.5553192 41.9688872,32.9864648 C41.533888,33.4172911 41.0097523,33.632784 40.396799,33.632784 C39.7840051,33.632784 39.2681612,33.4172911 38.8495861,32.9864648 C38.4303732,32.5553192 38.2211654,32.0368592 38.2211654,31.4301268" id="Fill-4" fill="#FF4C72"></path>
                    <g id="Group-8" transform="translate(46.561493, 0.031925)">
                        <mask id="mask-4" fill="white">
                            <use xlink:href="#path-3"></use>
                        </mask>
                        <g id="Clip-7"></g>
                        <path d="M16.120115,33.3614225 L2.34301578,33.3614225 C1.73675963,33.3614225 1.21055098,33.130446 0.764230365,32.6670563 C0.317271925,32.204784 0.0946697201,31.669723 0.0946697201,31.0629906 L0.0946697201,2.37832394 C0.0946697201,1.74014554 0.309936896,1.20508451 0.74031179,0.774258216 C1.1710056,0.343112676 1.68892248,0.127619718 2.29501917,0.127619718 C2.93268838,0.127619718 3.46702935,0.343112676 3.89772316,0.774258216 C4.32809805,1.20508451 4.54336522,1.74014554 4.54336522,2.37832394 L4.54336522,29.1952254 L16.120115,29.1952254 C16.6941608,29.1952254 17.1879997,29.3950751 17.6029072,29.7938169 C18.0170175,30.1935164 18.2247902,30.679892 18.2247902,31.2545399 C18.2247902,31.8612723 18.0170175,32.3640892 17.6029072,32.762831 C17.1879997,33.1625305 16.6941608,33.3614225 16.120115,33.3614225" id="Fill-6" fill="#FF4C72" mask="url(#mask-4)"></path>
                    </g>
                    <path d="M84.8293472,22.1398263 C84.8293472,19.8736385 84.0797391,18.0860047 82.5810012,16.776446 C81.0817849,15.4678451 79.359488,14.8132254 77.414589,14.8132254 C75.3413269,14.8132254 73.6115355,15.4917887 72.2244176,16.8484366 C70.8369808,18.205723 70.1433422,19.9692535 70.1433422,22.1398263 C70.1433422,24.3113568 70.8444753,26.0989906 72.2483362,27.5033662 C73.6510809,28.9085399 75.3733778,29.6104085 77.414589,29.6104085 C79.4873727,29.6104085 81.241561,28.9399859 82.6766755,27.5991408 C84.11179,26.2582958 84.8293472,24.4384178 84.8293472,22.1398263 M84.8773439,31.4301268 L84.8779817,29.9454601 C84.1440003,31.1906901 83.0593727,32.1565775 81.6242582,32.8428028 C80.1891437,33.5290282 78.6585143,33.8722207 77.0320512,33.8722207 C73.8747993,33.8722207 71.1957595,32.7872535 68.99541,30.6160423 C66.7947416,28.4453099 65.6944872,25.6356009 65.6944872,22.1878732 C65.6944872,18.7085399 66.7947416,15.898831 68.99541,13.7595446 C71.1957595,11.621216 73.8747993,10.5510939 77.0320512,10.5510939 C78.6585143,10.5510939 80.1966382,10.8863052 81.6483362,11.5568873 C83.0989181,12.2271502 84.1752539,13.1692535 84.8773439,14.3820798 L84.8773439,12.993507 C84.8773439,12.3874131 85.0865517,11.8679953 85.5057645,11.437169 C85.9243396,11.0060235 86.4401835,10.7905305 87.0529774,10.7905305 C87.6659308,10.7905305 88.1900665,11.0060235 88.6250656,11.437169 C89.0599053,11.8679953 89.2782022,12.3874131 89.2782022,12.993507 L89.2782022,31.4301268 C89.2782022,32.0368592 89.0599053,32.5553192 88.6250656,32.9864648 C88.1900665,33.4172911 87.6659308,33.632784 87.0529774,33.632784 C86.4401835,33.632784 85.9243396,33.4172911 85.5057645,32.9864648 C85.0865517,32.5553192 84.8773439,32.0368592 84.8773439,31.4301268" id="Fill-9" fill="#FF4C72"></path>
                    <path d="M100.378287,6.57652582 L100.378287,27.2638498 L106.309934,27.2638498 C108.828879,27.2638498 110.774416,26.2663568 112.146066,24.270892 C113.516919,22.2760657 114.203064,19.8413146 114.203064,16.9680751 C114.203064,14.0633897 113.516919,11.6046948 112.146066,9.59342723 C110.774416,7.58215962 108.828879,6.57652582 106.309934,6.57652582 L100.378287,6.57652582 Z M106.309934,33.3934272 L96.1686175,33.3934272 C95.3073893,33.3934272 94.6293774,33.1069014 94.1355386,32.532892 C93.6405835,31.9590423 93.3939033,31.2581315 93.3939033,30.4288826 L93.3939033,3.41149296 C93.4253164,2.55095775 93.6810857,1.84238498 94.1594572,1.2841784 C94.6378287,0.726131455 95.3073893,0.446948357 96.1686175,0.446948357 L106.309934,0.446948357 C110.933713,0.446948357 114.569337,2.00105164 117.216964,5.10925822 C119.863474,8.21746479 121.187447,12.1785446 121.187447,16.9920188 C121.187447,21.8062911 119.863474,25.7426291 117.216964,28.8029484 C114.569337,31.8632676 110.933713,33.3934272 106.309934,33.3934272 L106.309934,33.3934272 Z" id="Fill-11" fill="#29B3BC"></path>
                    <path d="M130.132308,20.2243333 L139.795413,20.2243333 C139.635477,18.8836479 139.133187,17.8705117 138.288542,17.1836479 C137.443101,16.4974225 136.382551,16.1539108 135.107213,16.1539108 C132.332817,16.1539108 130.674144,17.5113568 130.132308,20.2243333 M143.622385,27.3597042 C144.227684,28.0944554 144.442951,28.9002394 144.268186,29.7780141 C144.092624,30.6564272 143.590174,31.3343521 142.761157,31.8132254 C140.719945,33.1539108 138.152526,33.824493 135.059535,33.824493 C131.774558,33.824493 129.007976,32.7395258 126.759789,30.5681549 C124.511443,28.3974225 123.387111,25.5878732 123.387111,22.1398263 C123.387111,18.691939 124.511443,15.9071315 126.759789,13.7834883 C129.007976,11.6608028 131.774558,10.5991408 135.059535,10.5991408 C138.312461,10.5991408 141.030887,11.6930469 143.215769,13.8792629 C145.399694,16.0664366 146.492614,18.8836479 146.492614,22.3315352 C146.492614,22.9061831 146.284841,23.3931972 145.870571,23.7920986 C145.455823,24.1916385 144.977452,24.3906901 144.435457,24.3906901 L130.036634,24.3906901 C130.195772,25.6041549 130.825947,26.5216761 131.926202,27.1442113 C133.026456,27.7665869 134.229879,28.0780141 135.537906,28.0780141 C137.100108,28.0780141 138.391711,27.727 139.412556,27.024493 C140.209523,26.5141737 140.983209,26.2986808 141.732817,26.3780141 C142.481788,26.4581455 143.111803,26.7850563 143.622385,27.3597042" id="Fill-13" fill="#29B3BC"></path>
                    <path d="M155.772527,13.7596244 L155.772527,14.286385 C156.377985,13.1693333 157.279397,12.267615 158.475326,11.5807512 C159.671254,10.8946854 160.922515,10.5511737 162.230542,10.5511737 C164.813748,10.5511737 166.830562,11.3494554 168.281941,12.9455399 C169.732842,14.5422629 170.458532,16.9045446 170.458532,20.0328638 L170.458532,30.6638498 C170.458532,31.4943756 170.131166,32.1962441 169.47787,32.770892 C168.823936,33.3456995 168.034464,33.6328638 167.109931,33.6328638 C166.216652,33.6328638 165.442966,33.3381972 164.789989,32.747108 C164.135896,32.1564977 163.792744,31.4622911 163.761331,30.6638498 L163.761331,21.4694836 C163.761331,20.0328638 163.409887,18.9314554 162.708913,18.1652582 C162.007142,17.399061 161.066026,17.0159624 159.886681,17.0159624 C157.143539,17.0159624 155.772527,18.5327136 155.772527,21.5652582 L155.772527,30.6638498 C155.772527,31.4943756 155.445161,32.1962441 154.791865,32.770892 C154.137772,33.3456995 153.348618,33.6328638 152.423926,33.6328638 C151.530647,33.6328638 150.75712,33.3381972 150.103824,32.747108 C149.44989,32.1564977 149.106739,31.4622911 149.075326,30.6638498 L149.075326,13.7596244 C149.106739,12.9619812 149.44989,12.267615 150.103824,11.6765258 C150.75712,11.0860751 151.530647,10.7906103 152.423926,10.7906103 C153.348618,10.7906103 154.137772,11.0779343 154.791865,11.6525822 C155.445161,12.22723 155.772527,12.9298967 155.772527,13.7596244" id="Fill-15" fill="#29B3BC"></path>
                    <g id="Group-19" transform="translate(172.054283, 2.107042)">
                        <mask id="mask-6" fill="white">
                            <use xlink:href="#path-5"></use>
                        </mask>
                        <g id="Clip-18"></g>
                        <path d="M2.45446039,8.92298873 L4.27211264,8.92298873 L4.27211264,3.08073521 C4.3035257,2.28309202 4.64667752,1.58872582 5.30077082,0.99763662 C5.95390738,0.40734554 6.72759355,0.111721127 7.62071315,0.111721127 C8.5452458,0.111721127 9.33471824,0.39904507 9.98881154,0.973692958 C10.6419481,1.54834085 10.9693137,2.25100751 10.9693137,3.08073521 L10.9693137,8.92298873 L13.5046826,8.92298873 C14.1745622,8.92298873 14.7403162,9.17886667 15.2029014,9.68918592 C15.6648489,10.2001437 15.8965401,10.8228385 15.8965401,11.5567915 C15.8965401,12.2594582 15.6648489,12.8661906 15.2029014,13.3765099 C14.7403162,13.8876272 14.1745622,14.1591484 13.5046826,14.1905944 L10.9693137,14.1905944 L10.9693137,28.5567915 C10.9693137,29.3873174 10.6419481,30.0891859 9.98881154,30.6638338 C9.33471824,31.2386413 8.5452458,31.5258056 7.62071315,31.5258056 C6.72759355,31.5258056 5.95390738,31.231139 5.30077082,30.6400498 C4.64667752,30.0495991 4.3035257,29.3552329 4.27211264,28.5567915 L4.27211264,14.1905944 L2.45446039,14.1905944 C1.78458083,14.1591484 1.21802952,13.8876272 0.756241561,13.3765099 C0.293337405,12.8661906 0.0626028838,12.2594582 0.0626028838,11.5567915 C0.0626028838,10.8228385 0.293337405,10.2001437 0.756241561,9.68918592 C1.21802952,9.17886667 1.78458083,8.92298873 2.45446039,8.92298873" id="Fill-17" fill="#29B3BC" mask="url(#mask-6)"></path>
                    </g>
                </g>
            </g>
        </g>
    </g>
</svg>