<?xml version="1.0" encoding="UTF-8"?>
<svg width="18px" height="30px" viewBox="0 0 18 30" version="1.1" xmlns="http://www.w3.org/2000/svg" xmlns:xlink="http://www.w3.org/1999/xlink">
    <!-- Generator: Sketch 59 (86127) - https://sketch.com -->
    <title>Combined Shape</title>
    <desc>Created with Sketch.</desc>
    <g id="Desktop" stroke="none" stroke-width="1" fill="none" fill-rule="evenodd">
        <g id="15-1---Login" transform="translate(-705.000000, -445.000000)" fill="#29B3BC">
            <g id="Group-3" transform="translate(346.000000, 156.000000)">
                <path d="M372.900362,305.096366 C373.40959,304.775732 374.025406,304.670719 374.612118,304.804467 C375.19883,304.938215 375.708292,305.299748 376.028245,305.809404 C376.695274,306.869639 376.376536,308.269861 375.316318,308.936916 C373.933329,309.806329 372.413324,310.435707 370.820543,310.798451 L370.820543,310.798451 L375.148065,315.128197 C375.574211,315.553047 375.813728,316.130046 375.813728,316.731793 C375.813728,317.333539 375.574211,317.910538 375.148065,318.335388 C374.723177,318.760898 374.146532,319 373.54521,319 C372.943888,319 372.367243,318.760898 371.942356,318.335388 L371.942356,318.335388 L367.687472,314.081987 L363.435182,318.335018 C362.862206,318.908192 362.02697,319.132148 361.244098,318.922524 C360.461227,318.712899 359.849657,318.101541 359.639761,317.318743 C359.429866,316.535944 359.653532,315.70063 360.226508,315.127456 L360.226508,315.127456 L364.554771,310.798451 C362.962329,310.435369 361.442623,309.806011 360.059737,308.936916 C358.999983,308.269494 358.681689,306.869349 359.348922,305.809404 C359.668738,305.299695 360.178137,304.938104 360.764819,304.804347 C361.3515,304.67059 361.96729,304.77565 362.476434,305.096366 C365.645824,307.089094 369.728378,307.090576 372.900362,305.096366 Z M367.688213,289 C371.958662,289 375.430834,292.472913 375.430834,296.743363 C375.430834,301.011588 371.958292,304.483019 367.688213,304.483019 C363.418505,304.483019 359.945592,301.011588 359.945592,296.743363 C359.945592,292.473284 363.418505,289 367.688213,289 Z M367.688213,293.537653 C365.921923,293.537653 364.482874,294.975219 364.483245,296.743363 C364.483245,298.509653 365.921552,299.947589 367.688213,299.947589 C369.455615,299.947589 370.893922,298.509653 370.893922,296.743363 C370.893922,294.97559 369.455985,293.537653 367.688213,293.537653 Z" id="Combined-Shape"></path>
            </g>
        </g>
    </g>
</svg>