<svg width="30" height="32" viewBox="0 0 30 32" fill="none" xmlns="http://www.w3.org/2000/svg">
<path fill-rule="evenodd" clip-rule="evenodd" d="M23.1841 2.56292C23.1044 2.64326 23.0292 2.73064 22.9594 2.82506C22.5723 3.34841 21.197 4.11665 20.3022 4.24108C19.0954 4.40889 18.2184 5.47336 18.2847 6.68996C18.5123 10.8686 20.0771 14.5105 22.605 15.8546L22.59 15.8852C22.3955 16.2822 22.1926 16.6158 21.9354 16.9727C21.841 17.1037 21.5657 17.4584 21.3067 17.7921C21.1073 18.0491 20.9175 18.2937 20.8273 18.4142C20.5517 18.7823 20.4793 19.8152 20.5243 22.4884C20.538 23.3056 20.5427 23.7128 20.5409 24.1971C20.5276 27.9309 20.0084 30.1194 18.2521 31.2385C17.8378 31.5025 17.3619 31.4438 17.0059 31.1782C16.825 31.0432 16.6881 30.8713 16.5565 30.6515C16.3847 30.3647 16.2117 29.972 16.0005 29.4156C15.9187 29.2 15.6837 28.5353 15.4335 27.8275L15.4333 27.827C15.1617 27.0585 14.8722 26.2395 14.7412 25.8893C13.7044 23.1177 12.7474 21.5893 12.1602 21.5893C11.5715 21.5893 10.612 23.1189 9.57386 25.8893C9.43748 26.2533 9.13657 27.1039 8.85996 27.8859L8.85994 27.886L8.85986 27.8862C8.61702 28.5728 8.39293 29.2063 8.31536 29.411C8.10476 29.9666 7.93273 30.3587 7.76255 30.6451C7.63254 30.8639 7.49772 31.0352 7.32002 31.1705C6.96686 31.4394 6.49146 31.5044 6.07321 31.2416C4.30294 30.129 3.78212 27.9367 3.77268 24.192C3.77146 23.7084 3.77656 23.3006 3.79114 22.4864C3.83902 19.8131 3.7678 18.7811 3.49314 18.4142C3.4284 18.3277 3.28197 18.1336 3.14543 17.9526L3.14509 17.9522L3.14386 17.9505C3.02281 17.7901 2.90982 17.6404 2.86878 17.5855C2.6479 17.2902 2.48655 17.066 2.33747 16.8441C2.01025 16.357 1.75445 15.8936 1.50921 15.3305C1.2085 14.64 0.914943 13.7768 0.549128 12.5143C-0.296763 9.59508 -0.0654752 5.2649 0.56919 3.53064C1.24967 1.67119 4.38451 -0.124932 6.17148 0.0192449C7.42566 0.120434 8.23142 0.563613 9.63445 1.65796L9.83174 1.8118C10.8917 2.6361 11.4372 2.91533 12.1602 2.91533C12.8897 2.91533 13.4394 2.63208 14.526 1.78749L14.6986 1.65307C16.1317 0.536618 16.9415 0.0928972 18.2095 0.00578518C19.6609 -0.0939258 22.019 1.10889 23.1841 2.56292ZM24.8147 15C21.7373 15 19.9124 10.7169 19.6889 6.61348C19.6624 6.12684 20.0131 5.70106 20.4959 5.63393C21.7944 5.45336 23.4917 4.47022 24.09 3.66127C24.4648 3.15457 25.2227 3.15457 25.5975 3.66127C26.1958 4.47022 27.893 5.45336 29.1916 5.63393C29.6743 5.70106 30.0251 6.12684 29.9986 6.61348C29.7779 10.6664 27.8919 15 24.8147 15ZM28.0561 7.30016C27.7015 10.193 26.3012 13.125 24.8147 13.125C23.3368 13.125 21.9776 10.2221 21.6299 7.30058C22.7901 6.96434 23.9905 6.30517 24.8437 5.56926C25.6966 6.30486 26.8964 6.96379 28.0561 7.30016Z" fill="#29B3BC"/>
</svg>
