<svg width="47" height="60" viewBox="0 0 47 60" fill="none" xmlns="http://www.w3.org/2000/svg">
<path fill-rule="evenodd" clip-rule="evenodd" d="M23.2342 40.346C22.8037 40.346 22.0291 41.0302 21.1209 42.5456C20.2084 44.0682 19.302 46.1732 18.2968 48.9821C18.0318 49.7225 17.4476 51.4524 16.9158 53.0271L16.9157 53.0274C16.4591 54.3797 16.0411 55.6175 15.8969 56.0164C15.4978 57.1206 15.1725 57.8994 14.8531 58.4661C14.612 58.894 14.3634 59.2284 14.0354 59.4962C13.3635 60.0447 12.4341 60.2001 11.6064 59.6799C8.2149 57.5485 7.22853 53.2286 7.21167 45.7601C7.2095 44.8008 7.21924 43.9906 7.24695 42.3762C7.33844 37.0456 7.20093 34.9796 6.67772 34.2806C6.55409 34.1154 6.2746 33.745 6.01388 33.3995L6.01284 33.3981C5.78073 33.0904 5.56368 32.8028 5.48501 32.6976C5.06308 32.1335 4.75486 31.7053 4.47008 31.2813C3.84499 30.3508 3.35634 29.4656 2.88788 28.3899C2.31343 27.0708 1.75266 25.422 1.05385 23.0103C-0.560138 17.4403 -0.136666 10.1024 1.09217 6.74448C2.39208 3.19243 8.38048 -0.238653 11.7941 0.0367629C14.1899 0.230063 15.7291 1.07665 18.4093 3.16715C18.5995 3.31561 18.6957 3.39069 18.7861 3.46103C20.8109 5.03566 21.8531 5.56907 23.2342 5.56907C24.6276 5.56907 25.6777 5.02798 27.7535 3.41459L28.0832 3.15782C30.8208 1.02509 32.3676 0.17746 34.7899 0.0110513C38.1633 -0.220704 44.1009 3.23105 45.3778 6.74892C46.7594 10.5555 47.2131 16.8031 45.4145 23.0103C44.4925 26.1922 43.8417 28.0543 43.158 29.4496C42.7864 30.208 42.3987 30.8452 41.9074 31.5269C41.7271 31.7771 41.2017 32.4541 40.7071 33.0914L40.7065 33.0923C40.3255 33.5832 39.9629 34.0504 39.7906 34.2806C39.2657 34.9818 39.1259 37.0498 39.2118 42.3806C39.2379 44.0002 39.2468 44.8089 39.2437 45.7692C39.2194 53.2173 38.2363 57.5299 34.8714 59.6739C34.0513 60.1964 33.1202 60.0536 32.4427 59.511C32.1087 59.2436 31.8564 58.9079 31.6123 58.4781C31.2901 57.9107 30.9629 57.1307 30.5628 56.0253C30.4105 55.6046 29.972 54.3052 29.5012 52.9101L29.5011 52.91C28.9785 51.3614 28.4161 49.695 28.1614 48.9821C27.1571 46.1709 26.253 44.0669 25.3423 42.5447C24.4359 41.0296 23.663 40.346 23.2342 40.346ZM33.1386 26.8636C33.1386 23.4019 35.9449 20.5956 39.4066 20.5956C41.7945 20.5956 41.7945 17.0138 39.4066 17.0138C35.9449 17.0138 33.1386 14.2075 33.1386 10.7457C33.1386 8.35789 29.5568 8.35789 29.5568 10.7457C29.5568 14.2075 26.7505 17.0138 23.2887 17.0138C20.9009 17.0138 20.9009 20.5956 23.2887 20.5956C26.7505 20.5956 29.5568 23.4019 29.5568 26.8636C29.5568 29.2515 33.1386 29.2515 33.1386 26.8636ZM31.3477 16.4104C30.6934 17.3395 29.8825 18.1504 28.9534 18.8047C29.8825 19.4589 30.6934 20.2698 31.3477 21.1989C32.002 20.2698 32.8128 19.4589 33.742 18.8047C32.8128 18.1504 32.002 17.3395 31.3477 16.4104Z" fill="#FF4C72"/>
</svg>
