<svg xmlns="http://www.w3.org/2000/svg" width="30" height="17" viewBox="0 0 30 17">
    <path fill="#29B3BC" fill-rule="evenodd" d="M29.187 1.874c.231.631-.523 2.082-2.261 4.35-.242.316-.568.736-.98 1.258-.402.504-.679.859-.83 1.066a7.09 7.09 0 0 0-.46.732c-.155.282-.215.489-.18.622s.1.303.196.51c.095.208.258.42.49.637.23.217.517.478.859.784.04.02.065.04.075.06 1.418 1.292 2.377 2.382 2.88 3.27.03.05.063.11.098.185.035.074.07.205.106.392.035.187.032.355-.008.503-.04.148-.166.284-.377.407s-.507.185-.89.185l-3.859.06c-.241.049-.523.024-.844-.075a3.706 3.706 0 0 1-.784-.325l-.302-.178c-.301-.207-.653-.523-1.055-.947a26.545 26.545 0 0 1-1.033-1.147 4.957 4.957 0 0 0-.92-.858c-.326-.232-.61-.308-.851-.23a.996.996 0 0 0-.121.052 1.31 1.31 0 0 0-.256.215c-.12.118-.229.264-.324.436-.096.173-.181.43-.257.77-.075.34-.108.723-.098 1.147 0 .148-.017.283-.053.407a.989.989 0 0 1-.113.274l-.06.073c-.18.188-.447.296-.799.326h-1.734a6.974 6.974 0 0 1-2.2-.244 8.505 8.505 0 0 1-1.984-.784 18.126 18.126 0 0 1-1.552-.977c-.468-.33-.822-.614-1.063-.851l-.377-.355a9.814 9.814 0 0 1-.415-.444 32.806 32.806 0 0 1-1.078-1.347A36.997 36.997 0 0 1 4.175 9.6c-.523-.79-1.138-1.83-1.847-3.123A48.46 48.46 0 0 1 .361 2.451a1.162 1.162 0 0 1-.09-.4c0-.108.014-.187.045-.236l.06-.09c.15-.187.437-.28.86-.28l4.13-.03c.12.02.236.052.347.096.11.045.19.087.241.126l.076.045c.16.108.28.266.361.473.201.493.433 1.004.694 1.532.261.528.467.93.618 1.206l.241.429c.292.592.573 1.105.845 1.539.27.434.515.772.73 1.014.217.241.425.431.626.57.201.137.372.207.513.207.14 0 .276-.025.407-.074a.257.257 0 0 0 .075-.074c.03-.04.09-.148.181-.326.09-.178.159-.41.204-.696.045-.286.093-.685.143-1.198.05-.513.05-1.13 0-1.85a6.756 6.756 0 0 0-.136-1.08c-.07-.326-.14-.553-.21-.681l-.091-.178c-.251-.335-.679-.547-1.282-.636-.13-.02-.105-.138.076-.355.16-.188.352-.335.573-.444C11.13.803 12.332.685 14.2.705c.824.01 1.503.074 2.035.192.201.05.37.116.505.2a.798.798 0 0 1 .31.355c.07.153.123.31.158.474.035.162.053.387.053.673 0 .286-.005.557-.016.814l-.037 1.043a35.74 35.74 0 0 0-.023 1.221c0 .109-.005.316-.015.622-.01.305-.012.542-.007.71.005.168.022.367.052.6.03.231.088.423.174.576a.992.992 0 0 0 .339.363c.08.02.166.04.256.06.09.019.221-.035.392-.164.171-.128.362-.298.573-.51.211-.212.473-.543.784-.992.312-.449.653-.979 1.025-1.59a23.952 23.952 0 0 0 1.614-3.33c.04-.099.09-.185.15-.26a.669.669 0 0 1 .166-.154l.06-.045.076-.037a.813.813 0 0 1 .196-.044c.1-.015.2-.018.301-.008l4.342-.03c.392-.049.714-.036.965.038.252.074.407.155.468.244l.09.148z"/>
</svg>
